# xmcd
#
# Track frame offsets: 
#        150
#        13530
#        28947
#        42287
#        55230
#        68140
#        80842
#        94507
#        109270
#        123195
#        154037
#        192972
#        208487
#        223345
#        236965
#        251187
#        264867
#        278180
#        290822
#        304982
#
# Disc length: 4260 seconds
#
# Revision: 2
# Processed by: cddbd v1.5.2PL0 Copyright (c) Steve Scherf et al.
# Submitted via: ExactAudioCopyFreeDBPlugin 1.0
#
DISCID=3910a214
DTITLE=Bessie Smith - The Complete Recordings [Frog Records]
DYEAR=2003
DGENRE=Blues
TTITLE0=Slow and Easy Man
TTITLE1=Poor Man's Blues
TTITLE2=Please Help Me Get Him Off My Mind
TTITLE3=Me and My Gin
TTITLE4=I'm Wild About That Thing
TTITLE5=You've Got to Give Me Some
TTITLE6=Kitchen Man
TTITLE7=I've Got What it Takes (But it Breaks My Heart to Give it Away
TTITLE7=)
TTITLE8=Nobody Knows You When You're Down and Out
TTITLE9=Introduction to St. Louis Blues (soundtrack excerpt from the 1
TTITLE9=929 film "St. Louis Blues")
TTITLE10=St. Louis Blues (soundtrack excerpt from the 1929 film "St. L
TTITLE10=ouis Blues")
TTITLE11=Take it Right Back ('Cause I Don't Want it Here)
TTITLE12=He's Got Me Goin'
TTITLE13=It Makes My Love Come Down
TTITLE14=Wasted Life Blues
TTITLE15=Dirty No-Gooder's Blues
TTITLE16=Blue Spirit Blues
TTITLE17=Worn Out Papa Blues
TTITLE18=You Don't Understand
TTITLE19=Don't Cry Baby
EXTD=
EXTT0=
EXTT1=
EXTT2=
EXTT3=
EXTT4=
EXTT5=
EXTT6=
EXTT7=
EXTT8=
EXTT9=
EXTT10=
EXTT11=
EXTT12=
EXTT13=
EXTT14=
EXTT15=
EXTT16=
EXTT17=
EXTT18=
EXTT19=
PLAYORDER=
